<?xml version="1.0" standalone="no"?>
<!DOCTYPE svg PUBLIC "-//W3C//DTD SVG 20010904//EN"
 "http://www.w3.org/TR/2001/REC-SVG-20010904/DTD/svg10.dtd">
<svg version="1.0" xmlns="http://www.w3.org/2000/svg"
 width="700.000000pt" height="700.000000pt" viewBox="0 0 700.000000 700.000000"
 preserveAspectRatio="xMidYMid meet">
<metadata>
Created by potrace 1.14, written by Peter Selinger 2001-2017
</metadata>
<g transform="translate(0.000000,700.000000) scale(0.100000,-0.100000)"
fill="#000000" stroke="none">
<path d="M2928 6345 c-2 -2 -59 -6 -128 -10 -69 -3 -141 -8 -160 -10 -19 -2
-67 -6 -105 -9 -39 -4 -81 -8 -93 -11 -13 -2 -51 -7 -85 -10 -34 -3 -73 -8
-87 -10 -40 -5 -113 -17 -131 -20 -9 -2 -40 -6 -70 -10 -82 -10 -80 -22 3 -17
180 13 694 5 858 -13 19 -2 64 -7 100 -10 36 -4 76 -8 90 -10 14 -2 48 -6 75
-10 636 -82 1297 -328 1780 -663 91 -63 273 -201 325 -247 420 -367 756 -791
1045 -1315 69 -125 214 -427 275 -570 29 -69 60 -143 70 -165 9 -22 32 -80 50
-130 18 -49 35 -92 37 -95 5 -5 -6 304 -12 355 -2 17 -6 59 -10 95 -3 36 -7
76 -10 90 -2 14 -7 43 -10 65 -16 111 -49 277 -76 375 -11 41 -22 83 -24 93
-9 39 -89 267 -122 347 -296 717 -860 1282 -1593 1593 -165 69 -443 164 -534
182 -12 2 -22 4 -23 6 -3 2 -3 2 -58 14 -22 4 -44 9 -50 11 -9 2 -129 26 -190
38 -19 3 -75 12 -135 21 -14 2 -47 7 -75 10 -27 4 -61 8 -75 10 -14 2 -61 7
-105 11 -44 3 -96 8 -115 10 -43 5 -627 13 -632 9z"/>
<path d="M1968 6233 c7 -3 16 -2 19 1 4 3 -2 6 -13 5 -11 0 -14 -3 -6 -6z"/>
<path d="M3012 5841 c-571 -269 -999 -806 -1155 -1451 -29 -120 -32 -134 -52
-285 -15 -109 -15 -486 0 -580 81 -527 280 -945 612 -1286 82 -84 86 -87 171
-112 154 -47 260 -69 437 -92 71 -10 435 -14 440 -5 2 4 -11 72 -30 151 -31
128 -68 322 -81 418 -2 19 -6 46 -9 60 -21 131 -39 395 -39 606 0 151 9 373
19 440 2 17 6 57 9 90 3 33 9 89 15 125 5 36 13 85 16 110 3 25 8 52 10 60 2
8 7 31 10 50 19 120 85 404 120 520 66 217 95 303 137 420 78 213 166 422 251
598 23 48 24 54 9 59 -9 3 -34 11 -54 19 -112 41 -410 104 -563 119 -176 16
-162 18 -273 -34z"/>
<path d="M2489 5856 c-2 -2 -27 -6 -55 -10 -63 -7 -245 -46 -379 -81 -345 -90
-832 -294 -1220 -510 -197 -110 -236 -136 -231 -154 3 -9 17 -61 31 -116 273
-1045 671 -1866 1127 -2330 l99 -100 -56 112 c-149 303 -229 587 -262 928 -13
143 -5 546 12 575 2 3 6 28 9 55 4 28 9 61 11 75 3 14 7 34 9 45 23 119 100
381 117 400 5 5 9 15 9 23 0 25 94 223 163 342 157 272 369 519 596 693 60 47
69 57 49 57 -14 0 -27 -2 -29 -4z"/>
<path d="M4392 5478 c5 -24 18 -80 28 -124 l18 -82 -88 -4 c-113 -5 -195 -43
-269 -123 -221 -242 -48 -636 279 -636 69 0 88 3 134 20 16 7 31 9 34 7 13
-13 3 -561 -13 -680 -2 -17 -6 -58 -10 -91 -3 -33 -7 -71 -10 -85 -2 -14 -9
-61 -15 -105 -7 -44 -14 -89 -16 -100 -3 -11 -7 -36 -10 -55 -44 -268 -183
-709 -314 -995 -46 -102 -151 -308 -161 -320 -20 -21 -5 -21 89 -3 53 10 111
21 127 24 63 11 272 56 325 69 30 8 66 16 80 18 14 3 45 10 70 17 25 7 55 14
66 16 17 3 224 52 294 70 14 3 249 58 295 69 41 9 197 245 290 439 78 163 145
367 181 551 2 11 6 29 8 40 18 93 30 251 30 410 0 268 -6 306 -57 380 -22 33
-43 62 -46 65 -4 3 -33 41 -66 85 -206 275 -493 582 -730 781 -152 127 -368
281 -497 353 l-56 32 10 -43z"/>
<path d="M266 4725 c3 -55 7 -113 9 -130 7 -83 18 -182 20 -197 2 -9 6 -44 10
-77 3 -33 8 -68 10 -79 2 -11 6 -42 10 -69 3 -26 10 -70 15 -98 5 -27 12 -63
15 -80 2 -16 14 -77 26 -135 11 -58 23 -116 25 -130 9 -49 56 -226 90 -343
244 -832 678 -1449 1274 -1807 111 -67 293 -157 374 -184 26 -9 56 -21 65 -26
17 -8 241 -75 284 -84 116 -25 231 -46 272 -51 28 -4 57 -8 65 -10 102 -27
697 -27 905 0 17 2 53 7 80 10 77 9 118 15 141 20 12 3 39 7 60 10 54 8 301
57 354 70 11 3 28 7 38 9 53 12 196 50 257 67 100 29 267 80 285 86 8 4 18 7
22 7 3 1 10 4 14 8 4 5 14 8 21 8 43 0 493 176 833 325 136 60 551 266 715
354 82 45 153 81 157 81 4 0 10 5 13 11 9 14 -292 -3 -445 -26 -14 -2 -63 -9
-110 -15 -47 -6 -168 -27 -270 -47 -102 -19 -196 -37 -210 -39 -14 -3 -43 -10
-65 -16 -22 -5 -51 -12 -65 -14 -27 -3 -484 -118 -615 -154 -44 -12 -87 -23
-95 -25 -8 -2 -114 -29 -235 -60 -121 -32 -224 -58 -230 -59 -5 -1 -19 -5 -30
-9 -11 -3 -31 -8 -45 -11 -14 -2 -86 -18 -160 -36 -74 -18 -144 -34 -155 -36
-22 -5 -272 -50 -320 -59 -327 -56 -764 -67 -1020 -24 -152 25 -414 97 -439
120 -6 5 -16 9 -23 9 -20 0 -190 84 -280 139 -373 226 -702 599 -983 1111 -52
96 -187 371 -210 431 -10 26 -28 66 -39 90 -80 173 -247 659 -341 989 -86 304
-81 291 -74 175z"/>
<path d="M6089 3678 c-5 -233 -80 -570 -184 -828 -45 -112 -138 -297 -177
-352 -23 -33 -27 -32 82 -13 47 8 105 18 130 21 25 3 52 7 60 9 8 3 38 7 65
10 28 3 61 8 75 10 14 2 52 7 85 10 33 4 76 8 95 11 19 2 109 7 200 10 91 4
167 8 169 10 13 11 -246 535 -416 844 -50 90 -175 300 -179 300 -2 0 -4 -19
-5 -42z"/>
<path d="M6625 1934 c-115 -86 -788 -447 -961 -516 -21 -9 -64 -27 -94 -41
-104 -48 -355 -145 -495 -192 -77 -26 -147 -49 -155 -53 -8 -3 -19 -6 -25 -8
-5 -1 -73 -21 -150 -44 -77 -22 -153 -43 -169 -46 -16 -2 -32 -6 -35 -8 -9 -6
-395 -85 -436 -90 -25 -4 -141 -20 -145 -21 -3 -1 -36 -5 -75 -9 -38 -4 -81
-10 -95 -12 -14 -2 -65 -7 -115 -10 -49 -3 -110 -8 -135 -9 -64 -5 -483 -5
-560 -1 -76 5 -212 16 -255 21 -49 5 -128 15 -165 20 -19 3 -51 7 -70 10 -30
4 -257 46 -330 61 -349 73 -870 249 -1183 399 -28 14 -52 23 -54 22 -5 -5 137
-122 247 -203 193 -143 382 -256 605 -364 117 -56 381 -166 419 -175 6 -1 18
-5 26 -8 96 -38 453 -129 595 -151 98 -16 166 -26 210 -31 28 -4 61 -8 75 -11
144 -25 736 -24 915 1 17 2 82 11 145 20 154 22 306 52 497 99 277 69 686 238
953 394 149 87 381 247 441 304 8 7 36 31 64 53 139 111 382 379 499 549 41
60 44 74 11 50z"/>
</g>
</svg>
